<svg id="Layer_1" data-name="Layer 1" xmlns="http://www.w3.org/2000/svg" xmlns:xlink="http://www.w3.org/1999/xlink" viewBox="0 0 61.47 64.03"><defs><style>.cls-1{fill:url(#linear-gradient);}.cls-2{fill:url(#linear-gradient-2);}.cls-3{fill:url(#linear-gradient-3);}.cls-4{fill:url(#linear-gradient-4);}.cls-5{fill:url(#linear-gradient-7);}.cls-6{fill:url(#linear-gradient-8);}</style><linearGradient id="linear-gradient" x1="-15.9" y1="32.02" x2="78.11" y2="32.02" gradientUnits="userSpaceOnUse"><stop offset="0" stop-color="#6ebd88"/><stop offset="1" stop-color="#3cb3b8"/></linearGradient><linearGradient id="linear-gradient-2" x1="-15.9" y1="54.88" x2="78.11" y2="54.88" xlink:href="#linear-gradient"/><linearGradient id="linear-gradient-3" x1="-15.9" y1="18.84" x2="78.11" y2="18.84" xlink:href="#linear-gradient"/><linearGradient id="linear-gradient-4" x1="-15.9" y1="5.75" x2="78.11" y2="5.75" xlink:href="#linear-gradient"/><linearGradient id="linear-gradient-7" x1="-15.9" y1="21.48" x2="78.11" y2="21.48" xlink:href="#linear-gradient"/><linearGradient id="linear-gradient-8" x1="-15.9" y1="17.99" x2="78.11" y2="17.99" xlink:href="#linear-gradient"/></defs><title>icons-trofeu</title><path class="cls-1" d="M38.12,10.72,30.78,0,23.43,10.72,11,14.39l7.92,10.3-.35,13,8.18-2.91v4.12h-5v6.42H16.55V64H45V45.31H39.88V38.89h-5V34.77L43,37.68l-.36-13,7.93-10.3Zm4.11,37.37V61.25H19.33V48.09Zm-5.12-6.42v2.57H24.45V41.67Zm-5-2.78H29.5V33.78l1.28-.45,1.28.45Zm8.07-5.19-9.35-3.33L21.43,33.7l.27-9.92-6-7.87,9.52-2.81,5.61-8.18,5.61,8.18,9.52,2.81-6,7.87Z"/><path class="cls-2" d="M39.88,51.06H21.67V58.7H39.88Zm-2.77,4.86H24.45V53.84H37.11Z"/><polygon class="cls-3" points="9 17.32 0 17.58 0.04 18.97 0.08 20.36 9.08 20.09 9.04 18.7 9 17.32"/><polygon class="cls-4" points="6.23 2.67 5.28 3.68 11.83 9.85 12.79 8.84 13.74 7.83 7.19 1.65 6.23 2.67"/><polygon class="cls-3" points="52.43 18.7 52.39 20.09 61.38 20.36 61.43 18.97 61.47 17.58 52.47 17.32 52.43 18.7"/><polygon class="cls-4" points="47.73 7.83 48.68 8.84 49.64 9.85 56.19 3.68 55.23 2.67 54.28 1.65 47.73 7.83"/><path class="cls-5" d="M32.83,26.71c0,.61-.35.92-1,.92H25.94c-.71,0-1.06-.31-1.06-.92s.35-.89,1.06-.89h1.8V17.93l-1.66,1a.93.93,0,0,1-.44.14.75.75,0,0,1-.61-.31,1.07,1.07,0,0,1-.25-.69.86.86,0,0,1,.45-.78l2.68-1.67a2,2,0,0,1,1-.31,1.06,1.06,0,0,1,.78.3,1.1,1.1,0,0,1,.29.81v9.38h1.82C32.48,25.82,32.83,26.12,32.83,26.71Z"/><path class="cls-6" d="M32.19,19.89A2.6,2.6,0,0,1,31.46,18a2.58,2.58,0,0,1,.73-1.9,2.77,2.77,0,0,1,2.09-.75,2.77,2.77,0,0,1,2.09.76,2.81,2.81,0,0,1,0,3.8,2.77,2.77,0,0,1-2.09.76A2.74,2.74,0,0,1,32.19,19.89Zm2.87-1a1.37,1.37,0,0,0,.28-.92,1.38,1.38,0,0,0-.27-.92,1,1,0,0,0-.79-.31,1,1,0,0,0-.76.31,1.44,1.44,0,0,0-.26.92,1.42,1.42,0,0,0,.27.92.92.92,0,0,0,.75.33A1,1,0,0,0,35.06,18.9Z"/></svg>