<svg id="Layer_1" data-name="Layer 1" xmlns="http://www.w3.org/2000/svg" xmlns:xlink="http://www.w3.org/1999/xlink" viewBox="0 0 60.13 64.03"><defs><style>.cls-1{fill:url(#linear-gradient);}.cls-2{fill:url(#linear-gradient-2);}.cls-3{fill:url(#linear-gradient-3);}.cls-4{fill:url(#linear-gradient-4);}.cls-5{fill:url(#linear-gradient-5);}.cls-6{fill:url(#linear-gradient-6);}.cls-7{fill:url(#linear-gradient-7);}.cls-8{fill:url(#linear-gradient-8);}.cls-9{fill:url(#linear-gradient-9);}.cls-10{fill:url(#linear-gradient-10);}.cls-11{fill:url(#linear-gradient-12);}</style><linearGradient id="linear-gradient" x1="-18.76" y1="32.02" x2="77.91" y2="32.02" gradientUnits="userSpaceOnUse"><stop offset="0" stop-color="#6ebd88"/><stop offset="1" stop-color="#3cb3b8"/></linearGradient><linearGradient id="linear-gradient-2" x1="-18.76" y1="52.68" x2="77.91" y2="52.68" xlink:href="#linear-gradient"/><linearGradient id="linear-gradient-3" x1="-18.76" y1="28.19" x2="77.91" y2="28.19" xlink:href="#linear-gradient"/><linearGradient id="linear-gradient-4" x1="-18.76" y1="38.36" x2="77.91" y2="38.36" xlink:href="#linear-gradient"/><linearGradient id="linear-gradient-5" x1="-18.76" y1="37.05" x2="77.91" y2="37.05" xlink:href="#linear-gradient"/><linearGradient id="linear-gradient-6" x1="-18.76" y1="36.64" x2="77.91" y2="36.64" xlink:href="#linear-gradient"/><linearGradient id="linear-gradient-7" x1="-18.76" y1="43.57" x2="77.91" y2="43.57" xlink:href="#linear-gradient"/><linearGradient id="linear-gradient-8" x1="-18.76" y1="45.8" x2="77.91" y2="45.8" xlink:href="#linear-gradient"/><linearGradient id="linear-gradient-9" x1="-18.76" y1="10.43" x2="77.91" y2="10.43" xlink:href="#linear-gradient"/><linearGradient id="linear-gradient-10" x1="-18.76" y1="10.45" x2="77.91" y2="10.45" xlink:href="#linear-gradient"/><linearGradient id="linear-gradient-12" x1="-18.76" y1="21.69" x2="77.91" y2="21.69" xlink:href="#linear-gradient"/></defs><title>icons-trofeu</title><path class="cls-1" d="M42.91,57.8h-1V46.49a1.07,1.07,0,0,0-1.07-1.07h-3c-.32-2.91-3.15-5.25-6.75-5.64V31.67a13.68,13.68,0,0,0,12-9.7,8.83,8.83,0,0,0,8.31-8.8V1.07A1.06,1.06,0,0,0,50.42,0H9.72A1.07,1.07,0,0,0,8.65,1.07V13.18A8.82,8.82,0,0,0,17,22a13.67,13.67,0,0,0,12,9.7v8.11c-3.6.39-6.43,2.73-6.75,5.64h-3a1.07,1.07,0,0,0-1.07,1.07V57.8h-1a1.07,1.07,0,0,0-1.07,1.07V63A1.07,1.07,0,0,0,17.22,64H42.91A1.07,1.07,0,0,0,44,63V58.87A1.07,1.07,0,0,0,42.91,57.8Zm6.44-44.62a6.69,6.69,0,0,1-5.62,6.59V2.13h5.62ZM16.4,19.77a6.68,6.68,0,0,1-5.61-6.59v-11H16.4Zm2.19-1.68v-16h23v16a11.51,11.51,0,0,1-23,0Zm11.5,23.76c2.89,0,5.28,1.56,5.66,3.57H24.43C24.81,43.41,27.2,41.85,30.09,41.85Zm-9.75,5.71H39.8V57.8H20.34ZM41.85,61.9H18.29v-2H41.85Z"/><path class="cls-2" d="M37.11,48.62H23A1.07,1.07,0,0,0,22,49.69v6A1.06,1.06,0,0,0,23,56.73H37.11a1.06,1.06,0,0,0,1.07-1.06v-6A1.07,1.07,0,0,0,37.11,48.62ZM36,54.6H24.09V50.76H36V54.6Z"/><path class="cls-3" d="M11.3,30.92a1.37,1.37,0,0,0,.85-2.3l-1.85-2L10.87,24A1.37,1.37,0,0,0,9,22.49L6.5,23.65,4.17,22.29a1.4,1.4,0,0,0-1.72.28,1.37,1.37,0,0,0-.32,1.07l.34,2.69-2,1.8a1.37,1.37,0,0,0,.66,2.36l2.66.5,1.09,2.47a1.37,1.37,0,0,0,1.25.82,1.38,1.38,0,0,0,1.2-.71l1.3-2.38ZM6.93,29.81l-.74,1.36-.63-1.41a1.33,1.33,0,0,0-1-.79L3,28.68l1.16-1a1.36,1.36,0,0,0,.44-1.19l-.2-1.53,1.34.77a1.36,1.36,0,0,0,1.27.06l1.4-.66L8.13,26.6a1.33,1.33,0,0,0,.34,1.22L9.53,29,8,29.11A1.37,1.37,0,0,0,6.93,29.81Z"/><path class="cls-4" d="M12.2,37.94a10.65,10.65,0,0,0-2.33-3.61A1.07,1.07,0,0,0,8.32,35.8a8.47,8.47,0,0,1,1.92,3,10.73,10.73,0,0,0,2.33,3.6,1.08,1.08,0,0,0,.78.33,1,1,0,0,0,.73-.29,1.06,1.06,0,0,0,0-1.51A8.45,8.45,0,0,1,12.2,37.94Z"/><path class="cls-5" d="M10.69,32.09a1.07,1.07,0,0,0,0,1.51,15.08,15.08,0,0,1,2.81,3.95A17.1,17.1,0,0,0,16.59,42a1.08,1.08,0,0,0,.78.34A1.09,1.09,0,0,0,18.1,42a1.06,1.06,0,0,0,0-1.51,15.32,15.32,0,0,1-2.8-3.95,17.21,17.21,0,0,0-3.15-4.43A1.07,1.07,0,0,0,10.69,32.09Z"/><path class="cls-6" d="M57.72,34.82l.4-2.67a1.35,1.35,0,0,0-.31-1.09,1.4,1.4,0,0,0-1.7-.31l-2.36,1.31-2.42-1.21a1.41,1.41,0,0,0-1.67.36,1.36,1.36,0,0,0-.28,1.12L49.89,35,48,36.92a1.36,1.36,0,0,0,.8,2.31l2.69.33L52.73,42a1.36,1.36,0,0,0,2.45-.05l1.15-2.45L59,39a1.37,1.37,0,0,0,.71-2.34Zm-2.14,2.6a1.37,1.37,0,0,0-1,.77l-.65,1.4-.72-1.37a1.39,1.39,0,0,0-1-.73l-1.54-.19,1.09-1.1A1.37,1.37,0,0,0,52.06,35l-.29-1.52,1.39.69a1.36,1.36,0,0,0,1.27,0l1.35-.75-.23,1.54a1.39,1.39,0,0,0,.42,1.2l1.13,1Z"/><path class="cls-7" d="M47.15,44.46a5.85,5.85,0,0,0,2.19-2.4,1.06,1.06,0,0,0-.45-1.44,1.07,1.07,0,0,0-1.44.46A3.75,3.75,0,0,1,46,42.69a6,6,0,0,0-2.2,2.39,1.07,1.07,0,0,0,.46,1.44,1,1,0,0,0,.49.12,1.09,1.09,0,0,0,.95-.57A3.7,3.7,0,0,1,47.15,44.46Z"/><path class="cls-8" d="M51.73,42.11a1.07,1.07,0,0,0-1.44.45,6.86,6.86,0,0,1-2,2.42,9,9,0,0,0-2.5,3.07,1.07,1.07,0,0,0,.45,1.44,1,1,0,0,0,.5.12A1,1,0,0,0,47.7,49a6.86,6.86,0,0,1,2-2.42,9,9,0,0,0,2.5-3.07A1.06,1.06,0,0,0,51.73,42.11Z"/><path class="cls-9" d="M27.55,14.39c0,.57-.33.85-1,.85H21.92c-.67,0-1-.28-1-.85s.34-.85,1-.85h1.26V8L22,8.71a.83.83,0,0,1-.41.12A.72.72,0,0,1,21,8.55a1,1,0,0,1-.24-.64.77.77,0,0,1,.43-.72L23.33,5.9a1.84,1.84,0,0,1,1-.29,1,1,0,0,1,.73.28,1,1,0,0,1,.29.76v6.89h1.26C27.22,13.54,27.55,13.82,27.55,14.39Z"/><path class="cls-10" d="M27.41,14.1a6.16,6.16,0,0,1-.92-3.65,6.13,6.13,0,0,1,.92-3.64,3.09,3.09,0,0,1,2.66-1.26,3.07,3.07,0,0,1,2.65,1.26,6.13,6.13,0,0,1,.92,3.64,6.16,6.16,0,0,1-.92,3.65,3.07,3.07,0,0,1-2.65,1.26A3.09,3.09,0,0,1,27.41,14.1ZM31.21,13a6.42,6.42,0,0,0,.36-2.51,6.35,6.35,0,0,0-.36-2.51,1.23,1.23,0,0,0-2.29,0,6.42,6.42,0,0,0-.36,2.51A6.42,6.42,0,0,0,28.92,13a1.22,1.22,0,0,0,2.29,0Z"/><path class="cls-10" d="M33.71,14.1a6.17,6.17,0,0,1-.91-3.65,6.13,6.13,0,0,1,.91-3.64,3.43,3.43,0,0,1,5.31,0,6.13,6.13,0,0,1,.92,3.64A6.16,6.16,0,0,1,39,14.1a3.43,3.43,0,0,1-5.31,0ZM37.51,13a6.24,6.24,0,0,0,.36-2.51,6.17,6.17,0,0,0-.36-2.51,1.18,1.18,0,0,0-1.14-.78,1.2,1.2,0,0,0-1.15.78,6.42,6.42,0,0,0-.36,2.51A6.42,6.42,0,0,0,35.22,13a1.19,1.19,0,0,0,1.15.79A1.18,1.18,0,0,0,37.51,13Z"/><path class="cls-11" d="M26,21.84a2.67,2.67,0,0,1-.5-1.74,2.63,2.63,0,0,1,.5-1.72,1.78,1.78,0,0,1,1.41-.59,1.8,1.8,0,0,1,1.42.59,2.58,2.58,0,0,1,.51,1.72,2.62,2.62,0,0,1-.51,1.74,1.8,1.8,0,0,1-1.42.59A1.78,1.78,0,0,1,26,21.84Zm2-.62a2.53,2.53,0,0,0,.19-1.12A2.29,2.29,0,0,0,28,19a.67.67,0,0,0-1.17,0,2.36,2.36,0,0,0-.19,1.1,2.4,2.4,0,0,0,.19,1.12.63.63,0,0,0,.58.34A.66.66,0,0,0,28,21.22Zm.36,4.37a.51.51,0,0,1-.28.09.49.49,0,0,1-.34-.14.48.48,0,0,1-.14-.36.7.7,0,0,1,.1-.36l3.92-6.77a.66.66,0,0,1,.23-.26.52.52,0,0,1,.28-.08.44.44,0,0,1,.34.14.45.45,0,0,1,.15.35.78.78,0,0,1-.11.37l-3.91,6.76A.76.76,0,0,1,28.32,25.59Zm3-.62a2.68,2.68,0,0,1-.5-1.75,2.53,2.53,0,0,1,.51-1.71,2,2,0,0,1,2.81,0,2.58,2.58,0,0,1,.51,1.72A2.62,2.62,0,0,1,34.18,25a2,2,0,0,1-2.82,0Zm2-.62a2.37,2.37,0,0,0,.2-1.12,2.29,2.29,0,0,0-.2-1.09.63.63,0,0,0-.59-.35.64.64,0,0,0-.59.35A2.31,2.31,0,0,0,32,23.23a2.4,2.4,0,0,0,.19,1.12.65.65,0,0,0,.59.34A.64.64,0,0,0,33.36,24.35Z"/></svg>