<svg data-name="Layer 1" xmlns="http://www.w3.org/2000/svg" xmlns:xlink="http://www.w3.org/1999/xlink" viewBox="0 0 67.51 64.03"><defs><linearGradient id="a" x1="-13.35" y1="14.6" x2="80" y2="14.6" gradientUnits="userSpaceOnUse"><stop offset="0" stop-color="#fce38a"/><stop offset="1" stop-color="#f08182"/></linearGradient><linearGradient id="b" x1="-13.35" y1="30.06" x2="80" y2="30.06" xlink:href="#a"/><linearGradient id="c" x1="-13.35" y1="35.31" x2="80" y2="35.31" xlink:href="#a"/><linearGradient id="d" x1="-13.35" y1="46.52" x2="80" y2="46.52" xlink:href="#a"/><linearGradient id="e" x1="-13.35" y1="52.78" x2="80" y2="52.78" xlink:href="#a"/><linearGradient id="f" x1="-13.35" y1="54.91" x2="80" y2="54.91" xlink:href="#a"/></defs><path d="M21.48 29.21L31 25.83l9.48 3.38-.27-10.07 6.14-8-9.69-2.83L31 0l-5.7 8.31-9.66 2.85 6.14 8zm-.42-16.28l6.23-1.84L31 5.73l3.68 5.36 6.23 1.84-4 5.14.17 6.5L31 22.39l-6.12 2.18.18-6.5z" fill="url(#a)"/><path d="M67.51 27.19l-8.05-2.37-4.75-6.92L50 24.82l-8 2.37 5 6.65-.23 8.39 7.9-2.81 7.91 2.81-.23-8.39zM47.54 29l4.51-1.33 2.66-3.88 2.66 3.88L61.88 29 59 32.75l.13 4.7-4.43-1.58-4.43 1.58.13-4.7z" fill="url(#b)"/><path d="M19.49 33.12l-6.13-1.81L9.75 26l-3.62 5.31L0 33.12l3.9 5.07-.18 6.39 6-2.15 6 2.15-.18-6.39zM4.54 34.6l3.28-1 1.93-2.81 1.93 2.81 3.27 1-2.08 2.7.13 3.41-3.25-1.14-3.22 1.14.1-3.41z" fill="url(#c)"/><path d="M33.64 61.36V31.67a2.67 2.67 0 0 0-5.34 0v29.69a2.67 2.67 0 0 0 5.34 0z" fill="url(#d)"/><path d="M57.38 59.61V45.94a2.67 2.67 0 0 0-5.34 0v13.67a2.67 2.67 0 0 0 5.34 0z" fill="url(#e)"/><path d="M12.42 59.61v-9.39a2.67 2.67 0 0 0-5.34 0v9.39a2.67 2.67 0 0 0 5.34 0z" fill="url(#f)"/></svg>