<svg id="Layer_1" data-name="Layer 1" xmlns="http://www.w3.org/2000/svg" xmlns:xlink="http://www.w3.org/1999/xlink" viewBox="0 0 60.13 64.03"><defs><style>.cls-10{fill:url(#linear-gradient-10)}</style><linearGradient id="linear-gradient" x1="-18.76" y1="32.02" x2="77.91" y2="32.02" gradientUnits="userSpaceOnUse"><stop offset="0" stop-color="#6ebd88"/><stop offset="1" stop-color="#3cb3b8"/></linearGradient><linearGradient id="linear-gradient-2" x1="-18.76" y1="52.68" x2="77.91" y2="52.68" xlink:href="#linear-gradient"/><linearGradient id="linear-gradient-3" x1="-18.76" y1="28.19" x2="77.91" y2="28.19" xlink:href="#linear-gradient"/><linearGradient id="linear-gradient-4" x1="-18.76" y1="38.36" x2="77.91" y2="38.36" xlink:href="#linear-gradient"/><linearGradient id="linear-gradient-5" x1="-18.76" y1="37.05" x2="77.91" y2="37.05" xlink:href="#linear-gradient"/><linearGradient id="linear-gradient-6" x1="-18.76" y1="36.64" x2="77.91" y2="36.64" xlink:href="#linear-gradient"/><linearGradient id="linear-gradient-7" x1="-18.76" y1="43.57" x2="77.91" y2="43.57" xlink:href="#linear-gradient"/><linearGradient id="linear-gradient-8" x1="-18.76" y1="45.8" x2="77.91" y2="45.8" xlink:href="#linear-gradient"/><linearGradient id="linear-gradient-9" x1="-18.76" y1="10.43" x2="77.91" y2="10.43" xlink:href="#linear-gradient"/><linearGradient id="linear-gradient-10" x1="-18.76" y1="10.45" x2="77.91" y2="10.45" xlink:href="#linear-gradient"/><linearGradient id="linear-gradient-12" x1="-18.76" y1="21.69" x2="77.91" y2="21.69" xlink:href="#linear-gradient"/></defs><path d="M42.91 57.8h-1V46.49a1.07 1.07 0 0 0-1.07-1.07h-3c-.32-2.91-3.15-5.25-6.75-5.64v-8.11a13.68 13.68 0 0 0 12-9.7 8.83 8.83 0 0 0 8.31-8.8V1.07A1.06 1.06 0 0 0 50.42 0H9.72a1.07 1.07 0 0 0-1.07 1.07v12.11A8.82 8.82 0 0 0 17 22a13.67 13.67 0 0 0 12 9.7v8.11c-3.6.39-6.43 2.73-6.75 5.64h-3a1.07 1.07 0 0 0-1.07 1.07V57.8h-1a1.07 1.07 0 0 0-1.07 1.07V63a1.07 1.07 0 0 0 1.11 1h25.69A1.07 1.07 0 0 0 44 63v-4.13a1.07 1.07 0 0 0-1.09-1.07zm6.44-44.62a6.69 6.69 0 0 1-5.62 6.59V2.13h5.62zM16.4 19.77a6.68 6.68 0 0 1-5.61-6.59v-11h5.61zm2.19-1.68v-16h23v16a11.51 11.51 0 0 1-23 0zm11.5 23.76c2.89 0 5.28 1.56 5.66 3.57H24.43c.38-2.01 2.77-3.57 5.66-3.57zm-9.75 5.71H39.8V57.8H20.34zM41.85 61.9H18.29v-2h23.56z" fill="url(#linear-gradient)"/><path d="M37.11 48.62H23a1.07 1.07 0 0 0-1 1.07v6a1.06 1.06 0 0 0 1 1.04h14.11a1.06 1.06 0 0 0 1.07-1.06v-6a1.07 1.07 0 0 0-1.07-1.05zM36 54.6H24.09v-3.84H36v3.84z" fill="url(#linear-gradient-2)"/><path d="M11.3 30.92a1.37 1.37 0 0 0 .85-2.3l-1.85-2 .57-2.62A1.37 1.37 0 0 0 9 22.49l-2.5 1.16-2.33-1.36a1.4 1.4 0 0 0-1.72.28 1.37 1.37 0 0 0-.32 1.07l.34 2.69-2 1.8a1.37 1.37 0 0 0 .66 2.36l2.66.5 1.09 2.47a1.37 1.37 0 0 0 1.25.82 1.38 1.38 0 0 0 1.2-.71l1.3-2.38zm-4.37-1.11l-.74 1.36-.63-1.41a1.33 1.33 0 0 0-1-.79L3 28.68l1.16-1a1.36 1.36 0 0 0 .44-1.19l-.2-1.53 1.34.77a1.36 1.36 0 0 0 1.27.06l1.4-.66-.28 1.47a1.33 1.33 0 0 0 .34 1.22L9.53 29 8 29.11a1.37 1.37 0 0 0-1.07.7z" fill="url(#linear-gradient-3)"/><path d="M12.2 37.94a10.65 10.65 0 0 0-2.33-3.61 1.07 1.07 0 0 0-1.55 1.47 8.47 8.47 0 0 1 1.92 3 10.73 10.73 0 0 0 2.33 3.6 1.08 1.08 0 0 0 .78.33 1 1 0 0 0 .73-.29 1.06 1.06 0 0 0 0-1.51 8.45 8.45 0 0 1-1.88-2.99z" fill="url(#linear-gradient-4)"/><path d="M10.69 32.09a1.07 1.07 0 0 0 0 1.51 15.08 15.08 0 0 1 2.81 3.95A17.1 17.1 0 0 0 16.59 42a1.08 1.08 0 0 0 .78.34 1.09 1.09 0 0 0 .73-.34 1.06 1.06 0 0 0 0-1.51 15.32 15.32 0 0 1-2.8-3.95 17.21 17.21 0 0 0-3.15-4.43 1.07 1.07 0 0 0-1.46-.02z" fill="url(#linear-gradient-5)"/><path d="M57.72 34.82l.4-2.67a1.35 1.35 0 0 0-.31-1.09 1.4 1.4 0 0 0-1.7-.31l-2.36 1.31-2.42-1.21a1.41 1.41 0 0 0-1.67.36 1.36 1.36 0 0 0-.28 1.12l.51 2.67L48 36.92a1.36 1.36 0 0 0 .8 2.31l2.69.33L52.73 42a1.36 1.36 0 0 0 2.45-.05l1.15-2.45L59 39a1.37 1.37 0 0 0 .71-2.34zm-2.14 2.6a1.37 1.37 0 0 0-1 .77l-.65 1.4-.72-1.37a1.39 1.39 0 0 0-1-.73l-1.54-.19 1.09-1.1a1.37 1.37 0 0 0 .3-1.2l-.29-1.52 1.39.69a1.36 1.36 0 0 0 1.27 0l1.35-.75-.23 1.54a1.39 1.39 0 0 0 .42 1.2l1.13 1z" fill="url(#linear-gradient-6)"/><path d="M47.15 44.46a5.85 5.85 0 0 0 2.19-2.4 1.06 1.06 0 0 0-.45-1.44 1.07 1.07 0 0 0-1.44.46A3.75 3.75 0 0 1 46 42.69a6 6 0 0 0-2.2 2.39 1.07 1.07 0 0 0 .46 1.44 1 1 0 0 0 .49.12 1.09 1.09 0 0 0 .95-.57 3.7 3.7 0 0 1 1.45-1.61z" fill="url(#linear-gradient-7)"/><path d="M51.73 42.11a1.07 1.07 0 0 0-1.44.45 6.86 6.86 0 0 1-2 2.42 9 9 0 0 0-2.5 3.07 1.07 1.07 0 0 0 .45 1.44 1 1 0 0 0 .5.12 1 1 0 0 0 .96-.61 6.86 6.86 0 0 1 2-2.42 9 9 0 0 0 2.5-3.07 1.06 1.06 0 0 0-.47-1.4z" fill="url(#linear-gradient-8)"/><path d="M27.55 14.39c0 .57-.33.85-1 .85h-4.63c-.67 0-1-.28-1-.85s.34-.85 1-.85h1.26V8L22 8.71a.83.83 0 0 1-.41.12.72.72 0 0 1-.59-.28 1 1 0 0 1-.24-.64.77.77 0 0 1 .43-.72l2.14-1.29a1.84 1.84 0 0 1 1-.29 1 1 0 0 1 .73.28 1 1 0 0 1 .29.76v6.89h1.26c.61 0 .94.28.94.85z" fill="url(#linear-gradient-9)"/><path class="cls-10" d="M27.41 14.1a6.16 6.16 0 0 1-.92-3.65 6.13 6.13 0 0 1 .92-3.64 3.09 3.09 0 0 1 2.66-1.26 3.07 3.07 0 0 1 2.65 1.26 6.13 6.13 0 0 1 .92 3.64 6.16 6.16 0 0 1-.92 3.65 3.07 3.07 0 0 1-2.65 1.26 3.09 3.09 0 0 1-2.66-1.26zm3.8-1.1a6.42 6.42 0 0 0 .36-2.51 6.35 6.35 0 0 0-.36-2.51 1.23 1.23 0 0 0-2.29 0 6.42 6.42 0 0 0-.36 2.51 6.42 6.42 0 0 0 .36 2.51 1.22 1.22 0 0 0 2.29 0z"/><path class="cls-10" d="M33.71 14.1a6.17 6.17 0 0 1-.91-3.65 6.13 6.13 0 0 1 .91-3.64 3.43 3.43 0 0 1 5.31 0 6.13 6.13 0 0 1 .92 3.64A6.16 6.16 0 0 1 39 14.1a3.43 3.43 0 0 1-5.31 0zm3.8-1.1a6.24 6.24 0 0 0 .36-2.51 6.17 6.17 0 0 0-.36-2.51 1.18 1.18 0 0 0-1.14-.78 1.2 1.2 0 0 0-1.15.78 6.42 6.42 0 0 0-.36 2.51 6.42 6.42 0 0 0 .36 2.51 1.19 1.19 0 0 0 1.15.79 1.18 1.18 0 0 0 1.14-.79z"/><path d="M26 21.84a2.67 2.67 0 0 1-.5-1.74 2.63 2.63 0 0 1 .5-1.72 1.78 1.78 0 0 1 1.41-.59 1.8 1.8 0 0 1 1.42.59 2.58 2.58 0 0 1 .51 1.72 2.62 2.62 0 0 1-.51 1.74 1.8 1.8 0 0 1-1.42.59 1.78 1.78 0 0 1-1.41-.59zm2-.62a2.53 2.53 0 0 0 .19-1.12A2.29 2.29 0 0 0 28 19a.67.67 0 0 0-1.17 0 2.36 2.36 0 0 0-.19 1.1 2.4 2.4 0 0 0 .19 1.12.63.63 0 0 0 .58.34.66.66 0 0 0 .59-.34zm.36 4.37a.51.51 0 0 1-.28.09.49.49 0 0 1-.34-.14.48.48 0 0 1-.14-.36.7.7 0 0 1 .1-.36l3.92-6.77a.66.66 0 0 1 .23-.26.52.52 0 0 1 .28-.08.44.44 0 0 1 .34.14.45.45 0 0 1 .15.35.78.78 0 0 1-.11.37l-3.91 6.76a.76.76 0 0 1-.28.26zm3-.62a2.68 2.68 0 0 1-.5-1.75 2.53 2.53 0 0 1 .51-1.71 2 2 0 0 1 2.81 0 2.58 2.58 0 0 1 .51 1.72 2.62 2.62 0 0 1-.51 1.77 2 2 0 0 1-2.82 0zm2-.62a2.37 2.37 0 0 0 .2-1.12 2.29 2.29 0 0 0-.2-1.09.63.63 0 0 0-.59-.35.64.64 0 0 0-.59.35 2.31 2.31 0 0 0-.18 1.09 2.4 2.4 0 0 0 .19 1.12.65.65 0 0 0 .59.34.64.64 0 0 0 .58-.34z" fill="url(#linear-gradient-12)"/></svg>