<svg id="Layer_1" data-name="Layer 1" xmlns="http://www.w3.org/2000/svg" xmlns:xlink="http://www.w3.org/1999/xlink" viewBox="0 0 61.47 64.03"><defs><style>.cls-3{fill:url(#linear-gradient-3)}.cls-4{fill:url(#linear-gradient-4)}</style><linearGradient id="linear-gradient" x1="-15.9" y1="32.02" x2="78.11" y2="32.02" gradientUnits="userSpaceOnUse"><stop offset="0" stop-color="#6ebd88"/><stop offset="1" stop-color="#3cb3b8"/></linearGradient><linearGradient id="linear-gradient-2" x1="-15.9" y1="54.88" x2="78.11" y2="54.88" xlink:href="#linear-gradient"/><linearGradient id="linear-gradient-3" x1="-15.9" y1="18.84" x2="78.11" y2="18.84" xlink:href="#linear-gradient"/><linearGradient id="linear-gradient-4" x1="-15.9" y1="5.75" x2="78.11" y2="5.75" xlink:href="#linear-gradient"/><linearGradient id="linear-gradient-7" x1="-15.9" y1="21.48" x2="78.11" y2="21.48" xlink:href="#linear-gradient"/><linearGradient id="linear-gradient-8" x1="-15.9" y1="17.99" x2="78.11" y2="17.99" xlink:href="#linear-gradient"/></defs><path d="M38.12 10.72L30.78 0l-7.35 10.72L11 14.39l7.92 10.3-.35 13 8.18-2.91v4.12h-5v6.42h-5.2V64H45V45.31h-5.12v-6.42h-5v-4.12L43 37.68l-.36-13 7.93-10.3zm4.11 37.37v13.16h-22.9V48.09zm-5.12-6.42v2.57H24.45v-2.57zm-5-2.78H29.5v-5.11l1.28-.45 1.28.45zm8.07-5.19l-9.35-3.33-9.4 3.33.27-9.92-6-7.87 9.52-2.81 5.61-8.18 5.61 8.18 9.52 2.81-6 7.87z" fill="url(#linear-gradient)"/><path d="M39.88 51.06H21.67v7.64h18.21zm-2.77 4.86H24.45v-2.08h12.66z" fill="url(#linear-gradient-2)"/><path class="cls-3" d="M9 17.32l-9 .26.04 1.39.04 1.39 9-.27-.04-1.39L9 17.32z"/><path class="cls-4" d="M6.23 2.67l-.95 1.01 6.55 6.17.96-1.01.95-1.01-6.55-6.18-.96 1.02z"/><path class="cls-3" d="M52.43 18.7l-.04 1.39 8.99.27.05-1.39.04-1.39-9-.26-.04 1.38z"/><path class="cls-4" d="M47.73 7.83l.95 1.01.96 1.01 6.55-6.17-.96-1.01-.95-1.02-6.55 6.18z"/><path d="M32.83 26.71c0 .61-.35.92-1 .92h-5.89c-.71 0-1.06-.31-1.06-.92s.35-.89 1.06-.89h1.8v-7.89l-1.66 1a.93.93 0 0 1-.44.14.75.75 0 0 1-.61-.31 1.07 1.07 0 0 1-.25-.69.86.86 0 0 1 .45-.78l2.68-1.67a2 2 0 0 1 1-.31 1.06 1.06 0 0 1 .78.3 1.1 1.1 0 0 1 .29.81v9.38h1.82c.68.02 1.03.32 1.03.91z" fill="url(#linear-gradient-7)"/><path d="M32.19 19.89a2.6 2.6 0 0 1-.73-1.89 2.58 2.58 0 0 1 .73-1.9 2.77 2.77 0 0 1 2.09-.75 2.77 2.77 0 0 1 2.09.76 2.81 2.81 0 0 1 0 3.8 2.77 2.77 0 0 1-2.09.76 2.74 2.74 0 0 1-2.09-.78zm2.87-1a1.37 1.37 0 0 0 .28-.92 1.38 1.38 0 0 0-.27-.92 1 1 0 0 0-.79-.31 1 1 0 0 0-.76.31 1.44 1.44 0 0 0-.26.92 1.42 1.42 0 0 0 .27.92.92.92 0 0 0 .75.33 1 1 0 0 0 .78-.32z" fill="url(#linear-gradient-8)"/></svg>