<svg data-name="Layer 1" xmlns="http://www.w3.org/2000/svg" xmlns:xlink="http://www.w3.org/1999/xlink" viewBox="0 0 62.84 64.03"><defs><linearGradient id="a" x1="-19.08" y1="32.02" x2="82.97" y2="32.02" gradientUnits="userSpaceOnUse"><stop offset="0" stop-color="#63c1c2"/><stop offset="1" stop-color="#5e71b5"/></linearGradient><linearGradient id="b" x1="-19.08" y1="10.28" x2="82.97" y2="10.28" xlink:href="#a"/><linearGradient id="c" x1="-19.08" y1="36.61" x2="82.97" y2="36.61" xlink:href="#a"/><linearGradient id="d" x1="-19.08" y1="36.91" x2="82.97" y2="36.91" xlink:href="#a"/><linearGradient id="e" x1="-19.08" y1="13.24" x2="82.97" y2="13.24" xlink:href="#a"/><linearGradient id="f" x1="-19.08" y1="25.64" x2="82.97" y2="25.64" xlink:href="#a"/><linearGradient id="g" x1="-19.08" y1="38.37" x2="82.97" y2="38.37" xlink:href="#a"/><linearGradient id="h" x1="-19.08" y1="10.42" x2="82.97" y2="10.42" xlink:href="#a"/><linearGradient id="i" x1="-19.08" y1="32.06" x2="82.97" y2="32.06" xlink:href="#a"/><linearGradient id="j" x1="-19.08" y1="18.69" x2="82.97" y2="18.69" xlink:href="#a"/><linearGradient id="k" x1="-19.08" y1="13.63" x2="82.97" y2="13.63" xlink:href="#a"/><linearGradient id="l" x1="-19.08" y1="19.24" x2="82.97" y2="19.24" xlink:href="#a"/><linearGradient id="m" x1="-19.08" y1="32.59" x2="82.97" y2="32.59" xlink:href="#a"/><linearGradient id="n" x1="-19.08" y1="26.31" x2="82.97" y2="26.31" xlink:href="#a"/><linearGradient id="o" x1="-19.08" y1="52.85" x2="82.97" y2="52.85" xlink:href="#a"/><linearGradient id="p" x1="-19.08" y1="24.13" x2="82.97" y2="24.13" xlink:href="#a"/><linearGradient id="q" x1="-16.08" y1="24.18" x2="78.42" y2="24.18" xlink:href="#a"/></defs><path d="M56.05 4.49h-4.31V1.07A1.07 1.07 0 0 0 50.67 0H12.15a1.07 1.07 0 0 0-1.07 1.07v3.42H6.79A6.8 6.8 0 0 0 0 11.28v9.91a17.37 17.37 0 0 0 1.2 6.43c2.59 6.62 9.45 10.8 15.08 11.65a20.54 20.54 0 0 0 11.15 8.31v6.94C22 55.66 18.35 59 18.32 62.93A1.08 1.08 0 0 0 19 64a1.16 1.16 0 0 0 .42.08h24a1.16 1.16 0 0 0 .42-.08 1.09 1.09 0 0 0 .65-1c0-3.9-3.72-7.27-9.1-8.41v-7.01a20.41 20.41 0 0 0 11.14-8.31c5.64-.84 12.51-5 15.1-11.65a17.37 17.37 0 0 0 1.2-6.43v-9.91a6.8 6.8 0 0 0-6.78-6.79zm-4.31 6.4h2.89a1.81 1.81 0 0 1 1.81 1.81v8.49a11.22 11.22 0 0 1-.75 4.1 12.3 12.3 0 0 1-5 5.62 23.11 23.11 0 0 0 1-6.88zM49.6 2.13v2.49H13.22V2.13zM12.1 30.9a12.37 12.37 0 0 1-4.95-5.61 11.43 11.43 0 0 1-.75-4.1V12.7a1.81 1.81 0 0 1 1.81-1.81h2.87V24a23.41 23.41 0 0 0 1.02 6.9zm-8.92-4.06a15.49 15.49 0 0 1-1.05-5.65v-9.91a4.66 4.66 0 0 1 4.66-4.66h4.29v2.14H8.21a4 4 0 0 0-3.94 3.94v8.49a13.3 13.3 0 0 0 .9 4.88 15.21 15.21 0 0 0 8.1 7.93c.43 1 .9 1.89 1.41 2.78-4.51-1.36-9.52-4.88-11.5-9.94zM33.26 48v6.2a19.06 19.06 0 0 0-3.7 0V48a15.27 15.27 0 0 0 3.7 0zm9 13.91H20.6c.71-2.57 3.88-4.78 8.07-5.45a16.87 16.87 0 0 1 5.4 0c4.27.66 7.45 2.87 8.15 5.44zm-8.15-16.22a13.27 13.27 0 0 1-5.4 0c-4.1-.85-8-3.69-10.94-8a29.26 29.26 0 0 1-2.72-5l-.42-1A20.84 20.84 0 0 1 13.22 24V6.76H49.6V24a20.84 20.84 0 0 1-1.41 7.66 31.08 31.08 0 0 1-1.91 4c-3.1 5.51-7.42 9.05-12.17 10.03zm26.6-24.5a15.29 15.29 0 0 1-1.06 5.65c-2 5.07-7 8.59-11.5 9.89.5-.88 1-1.82 1.38-2.77a15.19 15.19 0 0 0 8.14-7.9 13.21 13.21 0 0 0 .9-4.87V12.7a4 4 0 0 0-3.94-3.94h-2.89V6.62h4.31a4.66 4.66 0 0 1 4.66 4.66v9.91z" fill="url(#a)"/><path d="M30.41 10.93l-.16-2.13a15.35 15.35 0 0 0-4.34 1l.77 2a13.54 13.54 0 0 1 3.73-.87z" fill="url(#b)"/><path d="M22.09 36.38A15.22 15.22 0 0 0 26 38.54l.76-2a13.06 13.06 0 0 1-3.35-1.85z" fill="url(#c)"/><path d="M35.52 36.75l.66 2a15.75 15.75 0 0 0 4-2L38.94 35a13 13 0 0 1-3.42 1.75z" fill="url(#d)"/><path d="M24.39 12.9l-1.13-1.8a14.8 14.8 0 0 0-3.39 2.9l1.6 1.41a13.34 13.34 0 0 1 2.92-2.51z" fill="url(#e)"/><path d="M18.16 24.14v-.61l-2.16-.1v.71a15.32 15.32 0 0 0 .45 3.71l2.07-.51a13.16 13.16 0 0 1-.36-3.2z" fill="url(#f)"/><path d="M29.19 37.21l-.35 2.1a14.7 14.7 0 0 0 2.57.22 16.61 16.61 0 0 0 1.87-.11L33 37.3a13.66 13.66 0 0 1-3.81-.09z" fill="url(#g)"/><path d="M37.51 10a15.57 15.57 0 0 0-4.29-1.15L33 11a13.44 13.44 0 0 1 3.69 1z" fill="url(#h)"/><path d="M17.47 30.65a15.27 15.27 0 0 0 2.44 3.71l1.6-1.36a13.24 13.24 0 0 1-2.11-3.2z" fill="url(#i)"/><path d="M20 17.45l-1.84-1.08a15.18 15.18 0 0 0-1.67 4.12l2.07.51A13.37 13.37 0 0 1 20 17.45z" fill="url(#j)"/><path d="M41.71 15.81l1.66-1.35a15.79 15.79 0 0 0-3.26-3l-1.21 1.75a13.35 13.35 0 0 1 2.81 2.6z" fill="url(#k)"/><path d="M44.41 21.54l2.09-.41a15.3 15.3 0 0 0-1.5-4.19l-1.89 1a12.92 12.92 0 0 1 1.3 3.6z" fill="url(#l)"/><path d="M40.9 33.39l1.53 1.49A15.14 15.14 0 0 0 45 31.29l-1.89-1a13.37 13.37 0 0 1-2.21 3.1z" fill="url(#m)"/><path d="M46.8 24.08l-2.14.06a13.07 13.07 0 0 1-.55 3.79l2 .61a15.51 15.51 0 0 0 .64-4.4z" fill="url(#n)"/><path d="M59.37 52.16c-4.27-1.17-5.09-2-6.27-6.26a.73.73 0 0 0-.69-.53.71.71 0 0 0-.68.53c-1.18 4.27-2 5.09-6.27 6.26a.72.72 0 0 0 0 1.38c4.27 1.18 5.09 2 6.27 6.26a.71.71 0 0 0 .68.53.73.73 0 0 0 .69-.53c1.18-4.26 2-5.08 6.27-6.26a.72.72 0 0 0 0-1.38zm-7 5.11A6.63 6.63 0 0 0 48 52.85a6.63 6.63 0 0 0 4.42-4.42 6.67 6.67 0 0 0 4.43 4.42 6.67 6.67 0 0 0-4.44 4.42z" fill="url(#o)"/><path d="M32.42 27.64a6 6 0 0 1-.88-3.52 6 6 0 0 1 .88-3.5 3.3 3.3 0 0 1 5.11 0 5.89 5.89 0 0 1 .89 3.5 5.92 5.92 0 0 1-.89 3.52 3.29 3.29 0 0 1-5.11 0zm3.66-1.1a6.2 6.2 0 0 0 .35-2.42 6.11 6.11 0 0 0-.35-2.41A1.15 1.15 0 0 0 35 21a1.16 1.16 0 0 0-1.11.75 6.21 6.21 0 0 0-.34 2.41 6.23 6.23 0 0 0 .34 2.42 1.16 1.16 0 0 0 1.11.72 1.15 1.15 0 0 0 1.08-.76z" fill="url(#p)"/><path d="M30.57 28.15q0 .69-.78.69h-5a.69.69 0 0 1-.54-.2.68.68 0 0 1-.19-.5 1 1 0 0 1 .3-.71l3-3.19a5 5 0 0 0 .81-1.11 2.15 2.15 0 0 0 .25-1 1.21 1.21 0 0 0-.35-.93 1.43 1.43 0 0 0-1-.33 2.82 2.82 0 0 0-1 .2 4.83 4.83 0 0 0-1 .56 1.82 1.82 0 0 1-.27.15.58.58 0 0 1-.26 0 .46.46 0 0 1-.38-.2.79.79 0 0 1-.16-.5.74.74 0 0 1 .07-.34.71.71 0 0 1 .23-.27 4.43 4.43 0 0 1 1.34-.73 4.61 4.61 0 0 1 1.54-.26 3.24 3.24 0 0 1 2.15.67 2.31 2.31 0 0 1 .8 1.83 3.29 3.29 0 0 1-.34 1.49 6.55 6.55 0 0 1-1.15 1.56l-2.26 2.41h3.45q.74.05.74.71z" fill="url(#q)"/></svg>