<svg id="Layer_1" data-name="Layer 1" xmlns="http://www.w3.org/2000/svg" xmlns:xlink="http://www.w3.org/1999/xlink" viewBox="0 0 50.45 64.03"><defs><style>.cls-1{fill:url(#linear-gradient);}.cls-2{fill:url(#linear-gradient-2);}</style><linearGradient id="linear-gradient" y1="32.02" x2="50.45" y2="32.02" gradientUnits="userSpaceOnUse"><stop offset="0" stop-color="#fce38a"/><stop offset="1" stop-color="#f08182"/></linearGradient><linearGradient id="linear-gradient-2" x1="7.66" y1="24.22" x2="42.79" y2="24.22" xlink:href="#linear-gradient"/></defs><title>icons-trofeu</title><path class="cls-1" d="M45.63,39.05c1-1.4,1-3.15,1.07-4.84a10.49,10.49,0,0,1,.3-2.92,10,10,0,0,1,1.42-2.42c.95-1.34,2-2.86,2-4.65s-1.08-3.32-2-4.66A10,10,0,0,1,47,17.14a10.45,10.45,0,0,1-.3-2.92c0-1.69-.06-3.44-1.07-4.83s-2.69-2-4.29-2.52A10.43,10.43,0,0,1,38.68,5.7a10.16,10.16,0,0,1-1.9-2.14C35.76,2.18,34.7.76,33,.22s-3.26,0-4.87.48a10.55,10.55,0,0,1-2.93.62A10.56,10.56,0,0,1,22.3.7C20.69.21,19-.3,17.43.22s-2.74,2-3.76,3.34a10.42,10.42,0,0,1-1.9,2.14A10.79,10.79,0,0,1,9.11,6.87C7.5,7.41,5.84,8,4.82,9.39s-1,3.14-1.07,4.83a10.45,10.45,0,0,1-.3,2.92A10,10,0,0,1,2,19.56c-.95,1.34-2,2.86-2,4.66s1.08,3.31,2,4.65a10,10,0,0,1,1.42,2.42,10.49,10.49,0,0,1,.3,2.92c0,1.7,0,3.45,1.07,4.84s2.68,2,4.29,2.52a14,14,0,0,1,2.22.9L4.57,57.79,13.36,57l5.34,7,6.6-15,6.35,15,5.43-7,8.78.91L39.25,42.39a15,15,0,0,1,2.08-.82C42.94,41,44.61,40.45,45.63,39.05ZM18.22,59.92l-3.89-5.11-6.4.57L13,44c.23.29.46.6.7.92,1,1.37,2.08,2.79,3.76,3.33a4.52,4.52,0,0,0,1.45.22,11.84,11.84,0,0,0,3.42-.7c.5-.15,1-.3,1.46-.41Zm24.32-4.43-6.4-.66-4,5.06L26.88,47.37c.41.1.84.23,1.27.36,1.61.49,3.27,1,4.87.48s2.73-2,3.76-3.33c.27-.37.53-.72.8-1ZM37.44,41a11.83,11.83,0,0,0-2.35,2.58c-.86,1.16-1.68,2.26-2.72,2.59s-2.25-.07-3.6-.49A12.37,12.37,0,0,0,25.22,45a12.38,12.38,0,0,0-3.54.71c-1.35.42-2.63.81-3.6.49s-1.86-1.43-2.73-2.59A11.58,11.58,0,0,0,13,41a11.69,11.69,0,0,0-3.21-1.46c-1.36-.47-2.64-.9-3.28-1.77s-.64-2.2-.66-3.63a12,12,0,0,0-.41-3.54,11.45,11.45,0,0,0-1.7-3C2.9,26.47,2.1,25.34,2.1,24.22S2.9,22,3.74,20.78a11.3,11.3,0,0,0,1.7-3,11.94,11.94,0,0,0,.41-3.53c0-1.43,0-2.78.66-3.64A6.83,6.83,0,0,1,9.79,8.85,11.69,11.69,0,0,0,13,7.39a11.37,11.37,0,0,0,2.35-2.58c.87-1.16,1.69-2.25,2.73-2.59a2.53,2.53,0,0,1,.8-.12,10.35,10.35,0,0,1,2.8.61,12.39,12.39,0,0,0,3.54.72,12.39,12.39,0,0,0,3.55-.72c1.35-.42,2.63-.81,3.6-.49s1.86,1.43,2.72,2.59a11.6,11.6,0,0,0,2.35,2.58,11.88,11.88,0,0,0,3.22,1.46c1.36.47,2.64.91,3.27,1.77s.65,2.21.67,3.64a12.27,12.27,0,0,0,.4,3.53,11.62,11.62,0,0,0,1.71,3c.84,1.19,1.64,2.31,1.64,3.44s-.8,2.25-1.64,3.43a11.78,11.78,0,0,0-1.71,3,12.34,12.34,0,0,0-.4,3.54c0,1.43-.05,2.78-.67,3.63S42,39.12,40.66,39.58A11.88,11.88,0,0,0,37.44,41Z"/><path class="cls-2" d="M25.22,6.65A17.57,17.57,0,1,0,42.79,24.22,17.59,17.59,0,0,0,25.22,6.65Zm0,33a15.37,15.37,0,0,1-9.66-3.4,7.55,7.55,0,0,1,7-4.77h5.3a7.57,7.57,0,0,1,7,4.79A15.39,15.39,0,0,1,25.22,39.68Zm-5.1-17.44a5.11,5.11,0,1,1,5.1,5.1A5.11,5.11,0,0,1,20.12,22.24ZM36.49,34.79a9.7,9.7,0,0,0-8.64-5.38H26a7.21,7.21,0,1,0-1.49,0H22.55a9.69,9.69,0,0,0-8.62,5.36,15.47,15.47,0,1,1,22.56,0Z"/></svg>