<svg id="Layer_1" data-name="Layer 1" xmlns="http://www.w3.org/2000/svg" xmlns:xlink="http://www.w3.org/1999/xlink" viewBox="0 0 62.84 64.03"><defs><style>.cls-1{fill:url(#linear-gradient);}.cls-2{fill:url(#linear-gradient-2);}.cls-3{fill:url(#linear-gradient-3);}.cls-4{fill:url(#linear-gradient-4);}.cls-5{fill:url(#linear-gradient-5);}.cls-6{fill:url(#linear-gradient-6);}.cls-7{fill:url(#linear-gradient-7);}.cls-8{fill:url(#linear-gradient-8);}.cls-9{fill:url(#linear-gradient-9);}.cls-10{fill:url(#linear-gradient-10);}.cls-11{fill:url(#linear-gradient-11);}.cls-12{fill:url(#linear-gradient-12);}.cls-13{fill:url(#linear-gradient-13);}.cls-14{fill:url(#linear-gradient-14);}.cls-15{fill:url(#linear-gradient-15);}.cls-16{fill:url(#linear-gradient-16);}</style><linearGradient id="linear-gradient" x1="-13.28" y1="32.02" x2="90.72" y2="32.02" gradientUnits="userSpaceOnUse"><stop offset="0" stop-color="#63c1c2"/><stop offset="1" stop-color="#5e71b5"/></linearGradient><linearGradient id="linear-gradient-2" x1="-13.28" y1="10.28" x2="90.72" y2="10.28" xlink:href="#linear-gradient"/><linearGradient id="linear-gradient-3" x1="-13.28" y1="36.61" x2="90.72" y2="36.61" xlink:href="#linear-gradient"/><linearGradient id="linear-gradient-4" x1="-13.28" y1="36.91" x2="90.72" y2="36.91" xlink:href="#linear-gradient"/><linearGradient id="linear-gradient-5" x1="-13.28" y1="13.24" x2="90.72" y2="13.24" xlink:href="#linear-gradient"/><linearGradient id="linear-gradient-6" x1="-13.28" y1="25.64" x2="90.72" y2="25.64" xlink:href="#linear-gradient"/><linearGradient id="linear-gradient-7" x1="-13.28" y1="38.37" x2="90.72" y2="38.37" xlink:href="#linear-gradient"/><linearGradient id="linear-gradient-8" x1="-13.28" y1="10.42" x2="90.72" y2="10.42" xlink:href="#linear-gradient"/><linearGradient id="linear-gradient-9" x1="-13.28" y1="32.06" x2="90.72" y2="32.06" xlink:href="#linear-gradient"/><linearGradient id="linear-gradient-10" x1="-13.28" y1="18.69" x2="90.72" y2="18.69" xlink:href="#linear-gradient"/><linearGradient id="linear-gradient-11" x1="-13.28" y1="13.63" x2="90.72" y2="13.63" xlink:href="#linear-gradient"/><linearGradient id="linear-gradient-12" x1="-13.28" y1="19.24" x2="90.72" y2="19.24" xlink:href="#linear-gradient"/><linearGradient id="linear-gradient-13" x1="-13.28" y1="32.59" x2="90.72" y2="32.59" xlink:href="#linear-gradient"/><linearGradient id="linear-gradient-14" x1="-13.28" y1="26.31" x2="90.72" y2="26.31" xlink:href="#linear-gradient"/><linearGradient id="linear-gradient-15" x1="-13.28" y1="24.11" x2="90.72" y2="24.11" xlink:href="#linear-gradient"/><linearGradient id="linear-gradient-16" x1="-13.28" y1="24.13" x2="90.72" y2="24.13" xlink:href="#linear-gradient"/></defs><title>icons-trofeu</title><path class="cls-1" d="M56.05,4.49H51.74V1.07A1.07,1.07,0,0,0,50.67,0H12.15a1.07,1.07,0,0,0-1.07,1.07V4.49H6.79A6.8,6.8,0,0,0,0,11.28v9.91a17.37,17.37,0,0,0,1.2,6.43c2.59,6.62,9.45,10.8,15.08,11.65a20.54,20.54,0,0,0,11.15,8.31v6.94C22,55.66,18.35,59,18.32,62.93v0A1.08,1.08,0,0,0,19,64a1.16,1.16,0,0,0,.42.08h24a1.16,1.16,0,0,0,.42-.08,1.09,1.09,0,0,0,.65-1v0c0-3.9-3.72-7.27-9.1-8.41V47.58a20.41,20.41,0,0,0,11.14-8.31c5.64-.84,12.51-5,15.1-11.65a17.37,17.37,0,0,0,1.2-6.43V11.28A6.8,6.8,0,0,0,56.05,4.49Zm-4.31,6.4h2.89a1.81,1.81,0,0,1,1.81,1.81v8.49a11.22,11.22,0,0,1-.75,4.1,12.3,12.3,0,0,1-5,5.62,23.11,23.11,0,0,0,1-6.88ZM49.6,2.13V4.62H13.22V2.13ZM12.1,30.9a12.37,12.37,0,0,1-4.95-5.61,11.43,11.43,0,0,1-.75-4.1V12.7a1.81,1.81,0,0,1,1.81-1.81h2.87V24A23.41,23.41,0,0,0,12.1,30.9ZM3.18,26.84a15.49,15.49,0,0,1-1.05-5.65V11.28A4.66,4.66,0,0,1,6.79,6.62h4.29V8.76H8.21A4,4,0,0,0,4.27,12.7v8.49a13.3,13.3,0,0,0,.9,4.88A15.21,15.21,0,0,0,13.27,34c.43,1,.9,1.89,1.41,2.78C10.17,35.42,5.16,31.9,3.18,26.84ZM33.26,48V54.2a19.06,19.06,0,0,0-3.7,0V48A15.27,15.27,0,0,0,33.26,48Zm9,13.91H20.6c.71-2.57,3.88-4.78,8.07-5.45h0a16.87,16.87,0,0,1,5.4,0h0C38.34,57.12,41.52,59.33,42.22,61.9ZM34.11,45.69h0a13.27,13.27,0,0,1-5.4,0c-4.1-.85-8-3.69-10.94-8a29.26,29.26,0,0,1-2.72-5l-.42-1A20.84,20.84,0,0,1,13.22,24V6.76H49.6V24a20.84,20.84,0,0,1-1.41,7.66,31.08,31.08,0,0,1-1.91,4C43.18,41.17,38.86,44.71,34.11,45.69Zm26.6-24.5a15.29,15.29,0,0,1-1.06,5.65c-2,5.07-7,8.59-11.5,9.89.5-.88,1-1.82,1.38-2.77a15.19,15.19,0,0,0,8.14-7.9,13.21,13.21,0,0,0,.9-4.87V12.7a4,4,0,0,0-3.94-3.94H51.74V6.62h4.31a4.66,4.66,0,0,1,4.66,4.66v9.91Z"/><path class="cls-2" d="M30.41,10.93,30.25,8.8a15.35,15.35,0,0,0-4.34,1l.77,2A13.54,13.54,0,0,1,30.41,10.93Z"/><path class="cls-3" d="M22.09,36.38A15.22,15.22,0,0,0,26,38.54l.76-2a13.06,13.06,0,0,1-3.35-1.85Z"/><path class="cls-4" d="M35.52,36.75l.66,2a15.75,15.75,0,0,0,4-2L38.94,35A13,13,0,0,1,35.52,36.75Z"/><path class="cls-5" d="M24.39,12.9l-1.13-1.8A14.8,14.8,0,0,0,19.87,14l1.6,1.41A13.34,13.34,0,0,1,24.39,12.9Z"/><path class="cls-6" d="M18.16,24.14c0-.2,0-.41,0-.61L16,23.43c0,.24,0,.48,0,.71a15.32,15.32,0,0,0,.45,3.71l2.07-.51A13.16,13.16,0,0,1,18.16,24.14Z"/><path class="cls-7" d="M29.19,37.21l-.35,2.1a14.7,14.7,0,0,0,2.57.22,16.61,16.61,0,0,0,1.87-.11L33,37.3A13.66,13.66,0,0,1,29.19,37.21Z"/><path class="cls-8" d="M37.51,10a15.57,15.57,0,0,0-4.29-1.15L33,11a13.44,13.44,0,0,1,3.69,1Z"/><path class="cls-9" d="M17.47,30.65a15.27,15.27,0,0,0,2.44,3.71L21.51,33a13.24,13.24,0,0,1-2.11-3.2Z"/><path class="cls-10" d="M20,17.45l-1.84-1.08a15.18,15.18,0,0,0-1.67,4.12l2.07.51A13.37,13.37,0,0,1,20,17.45Z"/><path class="cls-11" d="M41.71,15.81l1.66-1.35a15.79,15.79,0,0,0-3.26-3L38.9,13.21A13.35,13.35,0,0,1,41.71,15.81Z"/><path class="cls-12" d="M44.41,21.54l2.09-.41A15.3,15.3,0,0,0,45,16.94l-1.89,1A12.92,12.92,0,0,1,44.41,21.54Z"/><path class="cls-13" d="M40.9,33.39l1.53,1.49A15.14,15.14,0,0,0,45,31.29l-1.89-1A13.37,13.37,0,0,1,40.9,33.39Z"/><path class="cls-14" d="M46.8,24.08l-2.14.06a13.07,13.07,0,0,1-.55,3.79l2,.61a15.51,15.51,0,0,0,.64-4.4Z"/><path class="cls-15" d="M30.78,27.91c0,.55-.31.83-1,.83H25.36c-.64,0-1-.28-1-.83s.33-.81,1-.81h1.22V21.76l-1.15.69a.75.75,0,0,1-.4.12.7.7,0,0,1-.55-.27,1,1,0,0,1-.23-.62.76.76,0,0,1,.41-.69l2.06-1.24a1.73,1.73,0,0,1,.92-.28,1,1,0,0,1,.7.27,1,1,0,0,1,.28.73V27.1h1.21C30.47,27.1,30.78,27.37,30.78,27.91Z"/><path class="cls-16" d="M32.42,27.64a6,6,0,0,1-.88-3.52,6,6,0,0,1,.88-3.5,3.3,3.3,0,0,1,5.11,0,5.89,5.89,0,0,1,.89,3.5,5.92,5.92,0,0,1-.89,3.52,3.29,3.29,0,0,1-5.11,0Zm3.66-1.1a6.2,6.2,0,0,0,.35-2.42,6.11,6.11,0,0,0-.35-2.41A1.15,1.15,0,0,0,35,21a1.16,1.16,0,0,0-1.11.75,6.21,6.21,0,0,0-.34,2.41,6.23,6.23,0,0,0,.34,2.42A1.16,1.16,0,0,0,35,27.3,1.15,1.15,0,0,0,36.08,26.54Z"/></svg>