<svg id="Layer_1" data-name="Layer 1" xmlns="http://www.w3.org/2000/svg" xmlns:xlink="http://www.w3.org/1999/xlink" viewBox="0 0 67.51 64.03"><defs><style>.cls-1{fill:url(#linear-gradient);}.cls-2{fill:url(#linear-gradient-2);}.cls-3{fill:url(#linear-gradient-3);}.cls-4{fill:url(#linear-gradient-4);}.cls-5{fill:url(#linear-gradient-5);}.cls-6{fill:url(#linear-gradient-6);}</style><linearGradient id="linear-gradient" x1="-13.35" y1="14.6" x2="80" y2="14.6" gradientUnits="userSpaceOnUse"><stop offset="0" stop-color="#fce38a"/><stop offset="1" stop-color="#f08182"/></linearGradient><linearGradient id="linear-gradient-2" x1="-13.35" y1="30.06" x2="80" y2="30.06" xlink:href="#linear-gradient"/><linearGradient id="linear-gradient-3" x1="-13.35" y1="35.31" x2="80" y2="35.31" xlink:href="#linear-gradient"/><linearGradient id="linear-gradient-4" x1="-13.35" y1="46.52" x2="80" y2="46.52" xlink:href="#linear-gradient"/><linearGradient id="linear-gradient-5" x1="-13.35" y1="52.78" x2="80" y2="52.78" xlink:href="#linear-gradient"/><linearGradient id="linear-gradient-6" x1="-13.35" y1="54.91" x2="80" y2="54.91" xlink:href="#linear-gradient"/></defs><title>icons-trofeu</title><path class="cls-1" d="M21.48,29.21,31,25.83l9.48,3.38-.27-10.07,6.14-8L36.66,8.31,31,0l-5.7,8.31-9.66,2.85,6.14,8Zm-.42-16.28,6.23-1.84L31,5.73l3.68,5.36,6.23,1.84-4,5.14.17,6.5L31,22.39l-6.12,2.18.18-6.5Z"/><path class="cls-2" d="M67.51,27.19l-8.05-2.37L54.71,17.9,50,24.82l-8,2.37L47,33.84l-.23,8.39,7.9-2.81,7.91,2.81-.23-8.39ZM47.54,29l4.51-1.33,2.66-3.88,2.66,3.88L61.88,29,59,32.75l.13,4.7-4.43-1.58-4.43,1.58.13-4.7Z"/><path class="cls-3" d="M19.49,33.12l-6.13-1.81L9.75,26,6.13,31.31,0,33.12l3.9,5.07-.18,6.39,6-2.15,6,2.15-.18-6.39ZM4.54,34.6l3.28-1,1.93-2.81,1.93,2.81,3.27,1-2.08,2.7L13,40.71,9.75,39.57,6.53,40.71l.1-3.41Z"/><path class="cls-4" d="M33.64,61.36V31.67a2.67,2.67,0,0,0-5.34,0V61.36a2.67,2.67,0,0,0,5.34,0Z"/><path class="cls-5" d="M57.38,59.61V45.94a2.67,2.67,0,0,0-5.34,0V59.61a2.67,2.67,0,0,0,5.34,0Z"/><path class="cls-6" d="M12.42,59.61V50.22a2.67,2.67,0,0,0-5.34,0v9.39a2.67,2.67,0,0,0,5.34,0Z"/></svg>