<svg xmlns="http://www.w3.org/2000/svg" xmlns:xlink="http://www.w3.org/1999/xlink" version="1.1" x="0px" y="0px" viewBox="0 0 100 125" enable-background="new 0 0 100 100" xml:space="preserve"><g><path d="M84.631,11.308H78.57V6.5c0-0.829-0.671-1.5-1.5-1.5H22.93c-0.829,0-1.5,0.671-1.5,1.5v4.81h-6.035   c-5.263,0-9.545,4.282-9.545,9.545V34.78c0,3.164,0.566,6.208,1.683,9.046c3.638,9.301,13.28,15.181,21.203,16.369   c4.262,6.004,9.765,10.108,15.664,11.68v9.752c-7.57,1.609-12.76,6.342-12.794,11.82c-0.001,0.018-0.005,0.034-0.005,0.052   c0,0.622,0.378,1.155,0.916,1.382C32.697,94.958,32.895,95,33.103,95c0.003,0,0.006-0.001,0.01-0.001h33.776   c0.003,0,0.006,0.001,0.01,0.001c0.208,0,0.406-0.042,0.586-0.119c0.539-0.228,0.916-0.761,0.916-1.382   c0-0.018-0.005-0.034-0.005-0.052c-0.034-5.479-5.226-10.213-12.794-11.82v-9.755c5.956-1.577,11.388-5.642,15.663-11.674   c7.928-1.179,17.588-7.061,21.229-16.37c1.118-2.841,1.684-5.886,1.684-9.049V20.853C94.176,15.589,89.895,11.308,84.631,11.308z    M78.57,20.308h4.062c1.403,0,2.545,1.142,2.545,2.545v11.925c0,2.031-0.355,3.97-1.057,5.763   c-1.333,3.404-4.125,6.087-6.987,7.907c0.949-3.078,1.437-6.318,1.437-9.667V20.308z M75.57,8v3.5H24.43V8H75.57z M22.862,48.43   c-2.851-1.819-5.628-4.495-6.956-7.886c-0.701-1.795-1.057-3.734-1.057-5.764V22.855c0-1.403,1.142-2.545,2.545-2.545h4.035v18.47   C21.43,42.12,21.916,45.353,22.862,48.43z M10.326,42.73C9.347,40.241,8.85,37.566,8.85,34.78V20.855   c0-3.609,2.936-6.545,6.545-6.545h6.035v3h-4.035c-3.058,0-5.545,2.487-5.545,5.545V34.78c0,2.405,0.425,4.711,1.263,6.857   c1.805,4.61,6.041,8.712,11.391,11.076c0.602,1.353,1.261,2.66,1.974,3.917C20.145,54.791,13.108,49.844,10.326,42.73z M52.6,72.45   v8.725c-1.717-0.162-3.488-0.162-5.2,0V72.45C49.152,72.662,50.848,72.662,52.6,72.45z M65.189,91.999H34.811   c0.986-3.61,5.446-6.706,11.334-7.653c0.012-0.002,0.025-0.003,0.037-0.005c0.007-0.001,0.015-0.001,0.022-0.003   c2.432-0.396,5.146-0.397,7.592,0c0.005,0.001,0.01,0.001,0.014,0.002c0.017,0.003,0.034,0.003,0.051,0.006   C59.744,85.293,64.203,88.389,65.189,91.999z M53.797,69.221C53.797,69.221,53.797,69.221,53.797,69.221   c-2.568,0.516-5.03,0.516-7.597,0c-5.761-1.192-11.22-5.189-15.372-11.258c-1.457-2.128-2.742-4.478-3.819-6.983   c-0.205-0.479-0.4-0.958-0.592-1.437c-1.318-3.365-1.986-6.986-1.986-10.763V14.5h51.14v24.28c0,3.777-0.668,7.398-1.987,10.764   c-0.773,1.975-1.677,3.878-2.687,5.656C66.543,62.864,60.471,67.844,53.797,69.221z M91.176,34.777   c0,2.786-0.497,5.461-1.477,7.954c-2.784,7.118-9.832,12.068-16.169,13.901c0.705-1.245,1.341-2.559,1.941-3.899   c5.375-2.36,9.632-6.474,11.443-11.1c0.838-2.143,1.263-4.45,1.263-6.856V22.853c0-3.058-2.487-5.545-5.545-5.545H78.57v-3h6.062   c3.609,0,6.545,2.936,6.545,6.545V34.777z"/><path d="M52.099,23.384c-0.397-0.804-1.201-1.304-2.099-1.304s-1.701,0.5-2.099,1.305l-3.73,7.56l-8.343,1.212   c-0.888,0.129-1.611,0.739-1.89,1.592c-0.277,0.854-0.051,1.772,0.592,2.4l6.037,5.885l-1.425,8.307   c-0.117,0.683,0.07,1.375,0.514,1.902c0.692,0.821,1.927,1.069,2.882,0.566L50,48.887l7.462,3.923   c0.337,0.177,0.714,0.271,1.089,0.271h0.001c0.69,0,1.344-0.305,1.792-0.837c0.443-0.526,0.631-1.22,0.514-1.901l-1.425-8.308   l6.036-5.885c0.643-0.626,0.87-1.546,0.593-2.399s-1.002-1.464-1.89-1.593l-8.343-1.212L52.099,23.384z M57.092,40.126   c-0.553,0.538-0.806,1.313-0.675,2.072l1.258,7.333L51.09,46.07c-0.335-0.176-0.712-0.269-1.09-0.269s-0.755,0.093-1.09,0.269   l-6.585,3.462l1.258-7.333c0.131-0.76-0.122-1.535-0.674-2.072l-5.328-5.193l7.366-1.07c0.76-0.111,1.417-0.589,1.76-1.281   L50,25.911l3.294,6.675c0.342,0.689,1,1.167,1.762,1.278l7.362,1.07L57.092,40.126z"/><path d="M50,17.31c-11.924,0-21.625,9.701-21.625,21.625S38.076,60.56,50,60.56s21.625-9.701,21.625-21.625S61.924,17.31,50,17.31z    M50,57.56c-10.27,0-18.625-8.355-18.625-18.625S39.73,20.31,50,20.31s18.625,8.355,18.625,18.625S60.27,57.56,50,57.56z"/></g><text x="0" y="115" fill="#000000" font-size="5px" font-weight="bold" font-family="'Helvetica Neue', Helvetica, Arial-Unicode, Arial, Sans-serif">Created by Maxim Kulikov</text><text x="0" y="120" fill="#000000" font-size="5px" font-weight="bold" font-family="'Helvetica Neue', Helvetica, Arial-Unicode, Arial, Sans-serif">from the Noun Project</text></svg>