<svg xmlns="http://www.w3.org/2000/svg" xmlns:xlink="http://www.w3.org/1999/xlink" version="1.1" x="0px" y="0px" viewBox="0 0 100 125" enable-background="new 0 0 100 100" xml:space="preserve"><g><path d="M84.631,11.308H78.57V6.5c0-0.829-0.671-1.5-1.5-1.5H22.93c-0.829,0-1.5,0.671-1.5,1.5v4.81h-6.035   c-5.263,0-9.545,4.282-9.545,9.545V34.78c0,3.164,0.566,6.208,1.683,9.046c3.638,9.301,13.28,15.181,21.203,16.369   c4.262,6.004,9.765,10.108,15.664,11.68v9.752c-7.57,1.609-12.76,6.342-12.794,11.82c-0.001,0.018-0.005,0.034-0.005,0.052   c0,0.622,0.378,1.155,0.916,1.382C32.697,94.958,32.895,95,33.103,95c0.003,0,0.006-0.001,0.01-0.001h33.776   c0.003,0,0.006,0.001,0.01,0.001c0.208,0,0.406-0.042,0.586-0.119c0.539-0.228,0.916-0.761,0.916-1.382   c0-0.018-0.005-0.034-0.005-0.052c-0.034-5.479-5.226-10.213-12.794-11.82v-9.755c5.956-1.577,11.388-5.642,15.663-11.674   c7.928-1.179,17.588-7.061,21.229-16.37c1.118-2.841,1.684-5.886,1.684-9.049V20.853C94.176,15.589,89.895,11.308,84.631,11.308z    M78.57,20.308h4.062c1.403,0,2.545,1.142,2.545,2.545v11.925c0,2.031-0.355,3.97-1.057,5.763   c-1.333,3.404-4.125,6.087-6.987,7.907c0.949-3.078,1.437-6.318,1.437-9.667V20.308z M75.57,8v3.5H24.43V8H75.57z M22.862,48.43   c-2.851-1.819-5.628-4.495-6.956-7.886c-0.701-1.795-1.057-3.734-1.057-5.764V22.855c0-1.403,1.142-2.545,2.545-2.545h4.035v18.47   C21.43,42.12,21.916,45.353,22.862,48.43z M10.326,42.73C9.347,40.241,8.85,37.566,8.85,34.78V20.855   c0-3.609,2.936-6.545,6.545-6.545h6.035v3h-4.035c-3.058,0-5.545,2.487-5.545,5.545V34.78c0,2.405,0.425,4.711,1.263,6.857   c1.805,4.61,6.041,8.712,11.391,11.076c0.602,1.353,1.261,2.66,1.974,3.917C20.145,54.791,13.108,49.844,10.326,42.73z M52.6,72.45   v8.725c-1.717-0.162-3.488-0.162-5.2,0V72.45C49.152,72.662,50.848,72.662,52.6,72.45z M65.189,91.999H34.811   c0.986-3.61,5.446-6.706,11.334-7.653c0.012-0.002,0.025-0.003,0.037-0.005c0.007-0.001,0.015-0.001,0.022-0.003   c2.432-0.396,5.146-0.397,7.592,0c0.005,0.001,0.01,0.001,0.014,0.002c0.017,0.003,0.034,0.003,0.051,0.006   C59.744,85.293,64.203,88.389,65.189,91.999z M53.797,69.221C53.797,69.221,53.797,69.221,53.797,69.221   c-2.568,0.516-5.03,0.516-7.597,0c-5.761-1.192-11.22-5.189-15.372-11.258c-1.457-2.128-2.742-4.478-3.819-6.983   c-0.205-0.479-0.4-0.958-0.592-1.437c-1.318-3.365-1.986-6.986-1.986-10.763V14.5h51.14v24.28c0,3.777-0.668,7.398-1.987,10.764   c-0.773,1.975-1.677,3.878-2.687,5.656C66.543,62.864,60.471,67.844,53.797,69.221z M91.176,34.777   c0,2.786-0.497,5.461-1.477,7.954c-2.784,7.118-9.832,12.068-16.169,13.901c0.705-1.245,1.341-2.559,1.941-3.899   c5.375-2.36,9.632-6.474,11.443-11.1c0.838-2.143,1.263-4.45,1.263-6.856V22.853c0-3.058-2.487-5.545-5.545-5.545H78.57v-3h6.062   c3.609,0,6.545,2.936,6.545,6.545V34.777z"/><path d="M58.551,53.081L58.551,53.081c0.691,0,1.344-0.305,1.792-0.836c0.444-0.526,0.631-1.219,0.515-1.902l-1.425-8.308   l6.037-5.885c0.643-0.626,0.87-1.546,0.592-2.399s-1.001-1.464-1.889-1.593l-8.342-1.212l-3.731-7.561   c-0.397-0.804-1.202-1.304-2.099-1.304s-1.701,0.5-2.099,1.304l-3.731,7.56l-8.342,1.212c-0.888,0.129-1.612,0.739-1.89,1.593   s-0.05,1.773,0.592,2.399l6.037,5.885l-1.425,8.308c-0.117,0.682,0.071,1.375,0.515,1.902c0.692,0.82,1.928,1.069,2.881,0.565   L50,48.887l7.461,3.922C57.798,52.987,58.175,53.081,58.551,53.081z M48.911,46.07l-6.586,3.462l1.258-7.335   c0.129-0.76-0.123-1.534-0.674-2.07l-5.328-5.193l7.364-1.07c0.763-0.112,1.422-0.591,1.761-1.28L50,25.911l3.293,6.673   c0.341,0.69,0.999,1.168,1.762,1.28l7.363,1.07l-5.327,5.192c-0.552,0.537-0.804,1.311-0.675,2.072l1.258,7.334l-6.585-3.462   C50.421,45.719,49.581,45.719,48.911,46.07z"/><path d="M48.593,20.362l-0.224-2.991c-2.094,0.156-4.145,0.614-6.097,1.361l1.072,2.802C45.024,20.892,46.79,20.498,48.593,20.362z   "/><path d="M36.894,56.138c1.668,1.273,3.506,2.293,5.462,3.033l1.061-2.807c-1.684-0.636-3.266-1.515-4.702-2.611L36.894,56.138z"/><path d="M55.771,56.648l0.929,2.853c1.988-0.647,3.872-1.582,5.597-2.776l-1.708-2.467C59.104,55.287,57.482,56.091,55.771,56.648z   "/><path d="M40.129,23.138l-1.592-2.543c-1.773,1.11-3.375,2.47-4.761,4.042l2.25,1.984C37.222,25.266,38.602,24.094,40.129,23.138z"/><path d="M31.375,38.935c0-0.289,0.007-0.576,0.02-0.861l-2.997-0.138c-0.015,0.332-0.023,0.665-0.023,1   c0,1.765,0.214,3.52,0.634,5.215l2.912-0.722C31.559,41.97,31.375,40.458,31.375,38.935z"/><path d="M46.884,57.301l-0.498,2.958c1.185,0.2,2.401,0.301,3.614,0.301c0.878,0,1.762-0.053,2.626-0.158l-0.361-2.979   C50.493,57.639,48.645,57.598,46.884,57.301z"/><path d="M58.572,19.076c-1.921-0.831-3.952-1.375-6.035-1.618l-0.348,2.979c1.792,0.209,3.54,0.678,5.192,1.393L58.572,19.076z"/><path d="M30.401,48.085c0.885,1.893,2.041,3.648,3.435,5.216l2.242-1.993c-1.202-1.351-2.197-2.863-2.959-4.493L30.401,48.085z"/><path d="M33.919,29.532l-2.589-1.517c-1.061,1.81-1.849,3.759-2.344,5.792l2.915,0.709C32.328,32.767,33.006,31.09,33.919,29.532z"/><path d="M64.48,27.22l2.331-1.889c-1.319-1.627-2.862-3.053-4.587-4.237l-1.698,2.474C62.013,24.588,63.344,25.817,64.48,27.22z"/><path d="M68.268,35.282l2.942-0.585c-0.408-2.054-1.114-4.035-2.096-5.886l-2.65,1.406C67.309,31.811,67.916,33.515,68.268,35.282z   "/><path d="M63.334,51.938l2.148,2.095c1.465-1.502,2.7-3.202,3.672-5.052l-2.656-1.396C65.662,49.179,64.597,50.643,63.334,51.938z"/><path d="M71.625,38.853l-3,0.083c0,1.813-0.26,3.604-0.771,5.324l2.875,0.855c0.595-1.998,0.896-4.078,0.896-6.18V38.853z"/><path d="M27.56,69.726c-5.083-1.403-6.059-2.38-7.462-7.462c-0.12-0.434-0.514-0.734-0.964-0.734s-0.844,0.3-0.964,0.734   c-1.404,5.083-2.38,6.059-7.462,7.462c-0.434,0.12-0.734,0.514-0.734,0.964s0.3,0.844,0.734,0.964   c5.082,1.404,6.059,2.38,7.462,7.462c0.12,0.434,0.514,0.734,0.964,0.734s0.844-0.3,0.964-0.734   c1.403-5.082,2.379-6.059,7.462-7.462c0.434-0.12,0.734-0.514,0.734-0.964S27.994,69.846,27.56,69.726z M19.134,75.636   c-1.044-2.578-2.368-3.902-4.946-4.946c2.578-1.044,3.902-2.368,4.946-4.946c1.044,2.579,2.368,3.902,4.946,4.946   C21.502,71.734,20.178,73.058,19.134,75.636z"/><path d="M89.292,78.321c-6-1.657-7.152-2.809-8.81-8.81c-0.12-0.434-0.514-0.734-0.964-0.734s-0.844,0.3-0.964,0.734   c-1.657,6-2.81,7.153-8.81,8.81c-0.434,0.12-0.734,0.514-0.734,0.964s0.3,0.844,0.734,0.964c6,1.657,7.153,2.81,8.81,8.81   c0.12,0.434,0.514,0.734,0.964,0.734s0.844-0.3,0.964-0.734c1.657-6,2.81-7.152,8.81-8.81c0.434-0.12,0.734-0.514,0.734-0.964   S89.726,78.44,89.292,78.321z M79.519,85.503c-1.275-3.345-2.873-4.942-6.218-6.218c3.345-1.275,4.943-2.873,6.218-6.218   c1.276,3.345,2.874,4.943,6.218,6.218C82.392,80.56,80.794,82.158,79.519,85.503z"/></g><text x="0" y="115" fill="#000000" font-size="5px" font-weight="bold" font-family="'Helvetica Neue', Helvetica, Arial-Unicode, Arial, Sans-serif">Created by Maxim Kulikov</text><text x="0" y="120" fill="#000000" font-size="5px" font-weight="bold" font-family="'Helvetica Neue', Helvetica, Arial-Unicode, Arial, Sans-serif">from the Noun Project</text></svg>