<svg xmlns="http://www.w3.org/2000/svg" xmlns:xlink="http://www.w3.org/1999/xlink" version="1.1" x="0px" y="0px" viewBox="0 0 100 125" enable-background="new 0 0 100 100" xml:space="preserve"><path d="M68.055,86.242h-1.379V70.346c0-0.829-0.671-1.5-1.5-1.5h-4.151c-0.456-4.093-4.431-7.381-9.488-7.934v-11.4  c8.014-0.625,14.655-6.181,16.874-13.638c6.506-0.367,11.69-5.76,11.69-12.356V6.5c0-0.829-0.671-1.5-1.5-1.5H67.708H32.37  c-0.013,0-0.026,0.004-0.039,0.004C32.318,5.004,32.305,5,32.292,5H21.4c-0.829,0-1.5,0.671-1.5,1.5v17.019  c0,6.623,5.228,12.034,11.772,12.36c2.219,7.454,8.856,13.009,16.864,13.634v11.4c-5.058,0.552-9.033,3.841-9.488,7.934h-4.224  c-0.829,0-1.5,0.671-1.5,1.5v15.896h-1.379c-0.829,0-1.5,0.671-1.5,1.5V93.5c0,0.829,0.671,1.5,1.5,1.5h36.11  c0.829,0,1.5-0.671,1.5-1.5v-5.758C69.555,86.913,68.884,86.242,68.055,86.242z M77.1,23.519c0,4.668-3.423,8.552-7.892,9.272v-2.31  c0-0.019,0.003-0.038,0.003-0.058V8H77.1V23.519z M30.792,32.791c-4.468-0.72-7.892-4.604-7.892-9.272V8h7.892V32.791z   M33.87,30.423V8h32.338v22.481c-0.032,8.887-7.272,16.108-16.172,16.108C41.122,46.589,33.87,39.337,33.87,30.423z M50.036,63.821  c4.063,0,7.423,2.192,7.956,5.025H42.08C42.613,66.013,45.973,63.821,50.036,63.821z M36.324,71.846h27.352v14.396H36.324V71.846z   M66.555,92h-33.11v-2.758h1.379h30.352h1.379V92z"/><path d="M59.897,73.345H40.103c-0.829,0-1.5,0.671-1.5,1.5v8.397c0,0.829,0.671,1.5,1.5,1.5h19.795c0.829,0,1.5-0.671,1.5-1.5  v-8.397C61.397,74.017,60.726,73.345,59.897,73.345z M58.397,81.743H41.603v-5.397h16.795V81.743z"/><path d="M23.617,48.456c0.732-0.074,1.346-0.549,1.604-1.238c0.257-0.689,0.103-1.45-0.402-1.986l-2.608-2.765l0.8-3.715  c0.123-0.57-0.016-1.156-0.381-1.608c-0.547-0.679-1.527-0.905-2.315-0.531l-3.436,1.625l-3.286-1.909  c-0.774-0.449-1.818-0.277-2.406,0.393c-0.363,0.412-0.531,0.962-0.461,1.51l0.484,3.771l-2.832,2.536  c-0.548,0.491-0.765,1.236-0.568,1.944c0.198,0.708,0.769,1.233,1.493,1.37l3.735,0.705l1.537,3.476  c0.307,0.694,0.996,1.144,1.755,1.144c0.701,0,1.346-0.382,1.683-0.998l1.824-3.334L23.617,48.456z M17.479,46.905l-1.045,1.911  l-0.881-1.992c-0.256-0.578-0.779-0.993-1.399-1.11l-2.14-0.404l1.625-1.456c0.469-0.421,0.7-1.046,0.62-1.671l-0.277-2.161  l1.882,1.093c0.535,0.313,1.219,0.343,1.785,0.076l1.969-0.932l-0.458,2.131c-0.132,0.616,0.047,1.258,0.48,1.718l1.494,1.584  l-2.168,0.222C18.336,45.983,17.781,46.352,17.479,46.905z"/><path d="M24.889,58.324c-0.58-1.36-1.238-2.902-3.281-5.067c-0.569-0.602-1.518-0.63-2.121-0.061  c-0.603,0.569-0.629,1.518-0.061,2.121c1.676,1.774,2.152,2.891,2.703,4.184c0.58,1.36,1.238,2.902,3.281,5.067  c0.295,0.313,0.693,0.47,1.091,0.47c0.369,0,0.739-0.136,1.029-0.409c0.603-0.569,0.629-1.518,0.061-2.121  C25.916,60.733,25.44,59.617,24.889,58.324z"/><path d="M22.759,50.106c-0.603,0.569-0.629,1.518-0.061,2.121c2.312,2.449,3.104,3.956,3.942,5.552  c0.896,1.705,1.822,3.467,4.417,6.215c0.295,0.313,0.693,0.47,1.091,0.47c0.369,0,0.739-0.136,1.029-0.409  c0.603-0.569,0.629-1.518,0.061-2.121c-2.312-2.449-3.104-3.956-3.943-5.551c-0.896-1.705-1.822-3.467-4.417-6.216  C24.311,49.565,23.362,49.538,22.759,50.106z"/><path d="M88.874,53.946l0.563-3.757c0.083-0.553-0.077-1.113-0.441-1.536c-0.577-0.67-1.605-0.86-2.385-0.429l-3.326,1.84  l-3.401-1.697c-0.783-0.391-1.783-0.176-2.338,0.498c-0.365,0.442-0.511,1.02-0.402,1.584l0.722,3.731l-2.665,2.71  c-0.516,0.524-0.687,1.282-0.444,1.977s0.846,1.183,1.576,1.273l3.772,0.467l1.754,3.373c0.332,0.637,0.983,1.032,1.702,1.032  c0.742,0,1.424-0.434,1.738-1.106l1.609-3.443l3.749-0.626c0.726-0.121,1.308-0.634,1.521-1.338  c0.213-0.704,0.011-1.454-0.527-1.956L88.874,53.946z M85.855,57.595c-0.622,0.103-1.154,0.505-1.424,1.08l-0.922,1.974  l-1.005-1.932c-0.292-0.562-0.842-0.943-1.467-1.019l-2.162-0.268l1.526-1.552c0.443-0.449,0.636-1.088,0.517-1.711l-0.414-2.138  l1.948,0.972c0.552,0.276,1.238,0.264,1.786-0.038l1.906-1.054l-0.322,2.153c-0.094,0.625,0.126,1.257,0.588,1.688l1.591,1.487  L85.855,57.595z"/><path d="M74.006,67.489c0.917-0.619,2.058-1.388,3.09-3.364c0.384-0.734,0.1-1.64-0.634-2.024c-0.733-0.384-1.64-0.099-2.024,0.634  c-0.681,1.303-1.312,1.728-2.11,2.266c-0.917,0.618-2.058,1.388-3.09,3.363c-0.384,0.734-0.1,1.641,0.634,2.024  c0.222,0.116,0.459,0.171,0.693,0.171c0.541,0,1.063-0.293,1.331-0.806C72.578,68.452,73.208,68.027,74.006,67.489z"/><path d="M80.45,64.186c-0.733-0.384-1.64-0.099-2.024,0.634c-0.994,1.9-1.824,2.6-2.784,3.409c-1.051,0.885-2.243,1.889-3.51,4.313  c-0.384,0.734-0.1,1.64,0.634,2.024c0.222,0.116,0.459,0.171,0.693,0.171c0.541,0,1.063-0.293,1.331-0.806  c0.994-1.9,1.824-2.6,2.784-3.409c1.051-0.885,2.243-1.889,3.51-4.313C81.468,65.476,81.184,64.57,80.45,64.186z"/><text x="0" y="115" fill="#000000" font-size="5px" font-weight="bold" font-family="'Helvetica Neue', Helvetica, Arial-Unicode, Arial, Sans-serif">Created by Maxim Kulikov</text><text x="0" y="120" fill="#000000" font-size="5px" font-weight="bold" font-family="'Helvetica Neue', Helvetica, Arial-Unicode, Arial, Sans-serif">from the Noun Project</text></svg>