<svg xmlns="http://www.w3.org/2000/svg" xmlns:xlink="http://www.w3.org/1999/xlink" version="1.1" x="0px" y="0px" viewBox="0 0 100 125" enable-background="new 0 0 100 100" xml:space="preserve"><path d="M58.689,20.83l-4.759-0.691l-2.128-4.311c-0.341-0.692-1.032-1.122-1.803-1.122s-1.462,0.43-1.803,1.121l-2.128,4.312  L41.31,20.83c-0.763,0.111-1.385,0.636-1.623,1.369c-0.238,0.733-0.042,1.522,0.509,2.06l3.443,3.356l-0.813,4.74  c-0.1,0.586,0.062,1.181,0.443,1.634c0.595,0.704,1.656,0.916,2.475,0.485L50,32.236l4.256,2.238  c0.289,0.152,0.612,0.232,0.935,0.232h0c0.593,0,1.154-0.261,1.539-0.717c0.381-0.453,0.543-1.048,0.443-1.634l-0.813-4.74  l3.443-3.356c0.552-0.538,0.747-1.327,0.509-2.06C60.075,21.466,59.453,20.941,58.689,20.83z M53.893,25.831  c-0.473,0.461-0.689,1.126-0.578,1.779l0.562,3.276l-2.941-1.546c-0.575-0.303-1.297-0.302-1.872,0l-2.942,1.547l0.562-3.276  c0.111-0.652-0.104-1.317-0.578-1.779l-2.38-2.32l3.292-0.479c0.655-0.096,1.22-0.508,1.511-1.099L50,18.953l1.47,2.978  c0.292,0.593,0.857,1.005,1.515,1.102l3.289,0.478L53.893,25.831z"/><path d="M78.6,5H67.708H32.37c-0.013,0-0.026,0.004-0.039,0.004C32.318,5.004,32.305,5,32.292,5H21.4c-0.829,0-1.5,0.671-1.5,1.5  v17.019c0,6.623,5.228,12.034,11.772,12.36c2.219,7.454,8.856,13.009,16.864,13.634v11.4c-5.058,0.552-9.033,3.841-9.488,7.934  h-4.224c-0.829,0-1.5,0.671-1.5,1.5v15.896h-1.379c-0.829,0-1.5,0.671-1.5,1.5V93.5c0,0.829,0.671,1.5,1.5,1.5h36.11  c0.829,0,1.5-0.671,1.5-1.5v-5.758c0-0.829-0.671-1.5-1.5-1.5h-1.379V70.346c0-0.829-0.671-1.5-1.5-1.5h-4.151  c-0.456-4.093-4.431-7.381-9.488-7.934v-11.4c8.014-0.625,14.655-6.181,16.874-13.638c6.506-0.367,11.69-5.76,11.69-12.356V6.5  C80.1,5.671,79.428,5,78.6,5z M30.792,32.791c-4.468-0.72-7.892-4.604-7.892-9.272V8h7.892V32.791z M66.555,92h-33.11v-2.758h1.379  h30.352h1.379V92z M63.676,86.242H36.324V71.846h27.352V86.242z M57.992,68.846H42.08c0.533-2.833,3.893-5.025,7.956-5.025  S57.459,66.013,57.992,68.846z M50.036,46.589c-8.914,0-16.166-7.252-16.166-16.166V8h32.338v22.481  C66.176,39.368,58.936,46.589,50.036,46.589z M77.1,23.519c0,4.668-3.423,8.552-7.892,9.272v-2.31c0-0.019,0.003-0.038,0.003-0.058  V8H77.1V23.519z"/><path d="M40.103,84.743h19.795c0.829,0,1.5-0.671,1.5-1.5v-8.397c0-0.829-0.671-1.5-1.5-1.5H40.103c-0.829,0-1.5,0.671-1.5,1.5  v8.397C38.603,84.071,39.274,84.743,40.103,84.743z M41.603,76.345h16.795v5.397H41.603V76.345z"/><text x="0" y="115" fill="#000000" font-size="5px" font-weight="bold" font-family="'Helvetica Neue', Helvetica, Arial-Unicode, Arial, Sans-serif">Created by Maxim Kulikov</text><text x="0" y="120" fill="#000000" font-size="5px" font-weight="bold" font-family="'Helvetica Neue', Helvetica, Arial-Unicode, Arial, Sans-serif">from the Noun Project</text></svg>